<svg xmlns="http://www.w3.org/2000/svg" viewBox="0 0 100 50" width="100" height="50">
<path d="M 20.168 20.574 C 20.498 20.994 20.168 21.5 19.666 21.5 L 3.084 20.406 C 2.666 20.406 2.167 19.817 2.082 19.398 C 2 18.978 2 18.557 2 18.138 C 2 17.297 2.334 17.129 3.084 16.96 C 9.332 15.445 11.082 11.832 21.583 11.243 C 21.832 11.243 22 11.494 22 11.748 C 21.665 14.018 20.584 16.878 19.249 18.895 C 19.165 19.062 19.165 19.314 19.249 19.482 L 20.168 20.574 Z M 18.083 13.935 C 18.083 13.429 17.749 13.096 17.25 13.096 C 16.748 13.096 16.415 13.429 16.415 13.935 C 16.415 14.438 16.748 14.774 17.25 14.774 C 17.749 14.774 18.083 14.438 18.083 13.935 Z M 8.746 6.452 L 10.081 6.452 C 10.416 6.452 10.663 6.703 10.663 7.04 L 10.663 8.131 L 8.081 8.131 L 8.081 7.04 C 8.081 6.703 8.416 6.368 8.746 6.452 Z M 5.834 3.76 C 5.834 3.087 6.414 2.5 7.082 2.5 C 7.666 2.5 8.164 2.837 8.25 3.426 C 8.331 3.426 8.331 3.426 8.331 3.426 C 8.834 3.426 9.25 3.845 9.25 4.347 C 9.25 4.435 9.25 4.518 9.163 4.686 C 9.499 4.686 9.751 5.022 9.751 5.274 C 9.751 5.525 9.499 5.862 9.163 5.862 C 8.834 5.862 8.584 5.612 8.584 5.274 C 8.584 5.193 8.584 5.193 8.584 5.193 C 8.499 5.274 8.417 5.274 8.331 5.274 C 8.083 5.274 7.749 5.105 7.582 4.854 C 7.417 4.938 7.251 4.938 7.082 4.938 C 6.414 4.938 5.834 4.435 5.834 3.76 Z M 3.691 15.037 L 3.691 11.842 C 3.691 11.587 3.773 11.337 4.026 11.169 L 5.443 10.16 C 5.609 10.077 5.773 9.992 5.941 9.992 L 8.108 9.992 L 8.108 8.901 L 10.608 8.901 L 10.608 9.992 L 12.525 9.992 C 12.856 9.992 13.108 10.246 13.108 10.58 L 13.108 11.169 C 11.273 11.758 10.024 12.514 8.608 13.186 C 7.108 13.942 5.524 14.532 3.691 15.037 Z"></path>
</svg>
